# xmcd
#
# Track frame offsets:
#	150
#	16454
#	31267
#	51039
#	70086
#	87142
#	106551
#	123954
#	142264
#	159640
#	179523
#	199044
#	217033
#	231538
#	250808
#	271054
#	291174
#	307854
#	326873
#	340599
#
# Disc length: 4756 seconds
#
# Revision: 0
# Processed by: cddbd v1.5.2PL0 Copyright (c) Steve Scherf et al.
# Submitted via: EZCDAudioConverter 2.4.0.1
#
DISCID=20129214
DTITLE=Vários - Sertanejos Românticos 002
DYEAR=2004
DGENRE=Sertanejo
TTITLE0=Sérgio Reis - Quando Um Homem Ama Uma Mulher
TTITLE1=Chitãozinho and Xororó Feat. Bee Gee - Palavras (Words)
TTITLE2=Marlon and Maicon - Tudo Me Lembra Você
TTITLE3=Leandro and Leonardo - Dor De Amor Não Tem Jeito
TTITLE4=Gian and Giovani - Nem Dormindo Consigo Te Esquecer
TTITLE5=Roberta Miranda - A Mulher Em Mim (The Woman In Me)
TTITLE6=Chico Rey and Paraná - Quem Será Seu Outro Amor
TTITLE7=Daniel - Um Beijo Pra Me Enlouquecer
TTITLE8=Chrystian and Ralf - Sou Eu
TTITLE9=Leonardo - Deixaria Tudo
TTITLE10=Guilherme and Santiago - Te Amo Demais
TTITLE11=Matogrosso and Mathias - Tentei Te Esquecer
TTITLE12=Ataíde and Alexandre - Liguei Pra Dizer Que Te Amo
TTITLE13=Rionegro and Solimões - Frio Da Madrugada
TTITLE14=Zezé Di Camargo and Luciano - Cada Volta É Um Recomeço
TTITLE15=Rick and Renner - Só Pensando Em Você
TTITLE16=Eric Henrique - Pele De Maçã
TTITLE17=Marcelo Aguiar and Fernando - Dona Da Verdade
TTITLE18=Milionário and José Rico - Amante Da Estrada
TTITLE19=Felipe and Falcão - Deixa Eu Te Amar Por Favor (Acústico)
EXTD=
EXTT0=
EXTT1=
EXTT2=
EXTT3=
EXTT4=
EXTT5=
EXTT6=
EXTT7=
EXTT8=
EXTT9=
EXTT10=
EXTT11=
EXTT12=
EXTT13=
EXTT14=
EXTT15=
EXTT16=
EXTT17=
EXTT18=
EXTT19=
PLAYORDER=
